<mxfile host="app.diagrams.net" modified="2024-04-15T14:34:45.547Z" agent="Mozilla/5.0 (Windows NT 10.0; Win64; x64) AppleWebKit/537.36 (KHTML, like Gecko) Chrome/121.0.0.0 Safari/537.36" version="24.2.5" etag="Rg1U24cwv5Xk8W9QY_xp" type="github">
  <diagram name="Trang-1" id="1TX2zzFhvl031NhCwjlY">
    <mxGraphModel>
      <root>
        <mxCell id="0" />
        <mxCell id="1" parent="0" />
      </root>
    </mxGraphModel>
  </diagram>
</mxfile>
